
<svg version="1.1" xmlns="http://www.w3.org/2000/svg" xmlns:xlink="http://www.w3.org/1999/xlink" x="0px" y="0px"
	 width="388.95px" height="250.76px" viewBox="0 0 388.95 250.76"
	 style="overflow:visible;enable-background:new 0 0 388.95 250.76;" xml:space="preserve">
<style type="text/css">
	.st0{fill:#FFFFFF;stroke:#000000;stroke-miterlimit:10;}
	.st1{fill:#F2F2F2;stroke:#000000;stroke-miterlimit:10;}
	.st2{fill:#B3B5B8;stroke:#000000;stroke-miterlimit:10;}
	.st3{fill:#E2E3E4;stroke:#000000;stroke-miterlimit:10;}
	.st4{fill:#888A8C;stroke:#000000;stroke-miterlimit:10;}
	.st5{fill:#5C5D60;stroke:#000000;stroke-miterlimit:10;}
	.st6{fill:none;}
	.st7{opacity:0.46;fill:#E76120;}
	.st8{fill:#F26522;}
	.st9{fill:#FFFFFF;}
	.st10{fill:#F2F2F2;}
	.st11{fill:#E2E3E4;}
	.st12{fill:#7E8083;}
	.st13{fill:#B3B5B8;}
</style>
<defs>
</defs>
<polygon class="st0" points="0.55,38.66 68.01,37.03 9,131.01 "/>
<polygon class="st1" points="9,131.01 5.2,152.09 83.39,104.22 136.35,29.54 68.01,37.03 "/>
<polygon class="st2" points="83.39,104.22 61.75,181.15 6.5,169.97 5.2,152.09 "/>
<polygon class="st3" points="177.73,0.87 254.98,14.75 272.8,52.96 136.35,29.54 "/>
<polygon class="st2" points="298.62,30.56 272.8,52.96 254.98,14.75 "/>
<polygon class="st4" points="304.07,61.65 250.85,132.52 272.8,52.96 298.62,30.56 "/>
<polygon class="st2" points="61.75,181.15 188.47,180.19 179.12,141.16 272.8,52.96 136.35,29.54 83.39,104.22 "/>
<polygon class="st5" points="215.61,172.15 188.47,180.19 179.12,141.16 222.25,149.05 "/>
<polygon class="st4" points="250.85,132.52 222.25,149.05 179.12,141.16 272.8,52.96 "/>
<rect x="8.28" y="63.53" transform="matrix(6.243674e-03 -1 1 6.243674e-03 -52.3358 96.125)" class="st6" width="27.84" height="21.73"/>
<polygon class="st7" points="6.5,169.97 61.75,181.15 188.47,180.19 215.61,172.15 311.59,195.18 330.38,221.06 292.68,250.76 
	145.49,244.92 85.51,231.28 61.48,224.31 "/>
<polygon class="st1" points="136.35,29.54 177.73,0.87 124.13,6.56 68.01,37.03 "/>
<polygon class="st8" points="5.2,43.82 9.62,104.22 25.16,101 32.99,85.5 28.19,77.17 40.32,74.02 54.34,49.88 44.3,43.82 "/>
<polygon class="st9" points="17.2,52.96 17.2,67.69 29.77,66.18 34.28,52.96 "/>
<polygon class="st9" points="17.2,81.54 15.69,97.63 22.2,97.63 25.74,88.33 "/>
<polygon class="st8" points="70.78,41.93 44.3,85.5 92.99,84.02 125.58,37.03 "/>
<polygon class="st10" points="75.94,48.37 60.02,77.17 87.69,77.17 106.44,48.37 "/>
<polygon class="st8" points="125.58,9.34 83.23,32.07 122.87,26.91 128.99,24.12 127.48,26.91 132.4,26.91 162.34,5.55 151.35,7.44 
	121.03,22.6 104.74,24.12 131.27,9.72 "/>
<polygon class="st8" points="217.91,11.37 185.22,34.25 217.91,39.42 235.62,34.25 243.37,25.4 239.48,15.16 "/>
<polygon class="st11" points="220.92,18.38 204.58,29.83 220.92,32.41 229.78,29.83 233.65,25.4 231.7,20.28 "/>
<polygon class="st8" points="179.12,3.99 189.62,5.51 165.75,22.56 183.56,25.21 177.69,32.03 148.39,26.87 "/>
<polygon class="st8" points="258.97,18.95 272.8,48.37 291.18,32.48 287.01,30.64 275.08,39.46 272.8,33.92 280.19,32.11 
	279.06,29.63 272.8,30.64 270.34,25.5 277.46,27.01 278.93,23.54 "/>
<polygon class="st8" points="275.08,54.81 295.73,37.03 298.62,60.41 286.85,62.77 286.85,79.44 280.57,88.38 279.43,67.69 
	263.9,110.52 256.7,119.99 "/>
<polygon class="st12" points="283.6,52.96 291.18,48.37 291.18,55.95 283.6,55.95 "/>
<polygon class="st8" points="9.24,155.23 9.24,166.22 56.61,175.69 60.02,162.43 54.34,155.23 63.43,152.09 74.8,119.99 "/>
<polygon class="st13" points="14.17,163.95 14.17,160.67 49.29,158.39 53.33,163.95 51.31,169.97 "/>
<polygon class="st13" points="14.17,155.61 14.17,158.39 57.88,149.05 64.19,132.87 "/>
<polygon class="st8" points="167.27,43.82 193.03,48.37 151.1,132.87 151.1,175.69 125.58,175.69 125.58,132.87 "/>
<polygon class="st8" points="263.77,67.69 246.09,131.01 238.51,135.4 219.11,119.99 211.2,147.02 213.5,169.97 206.68,171.72 
	203.58,145.63 213.12,113.74 220.51,109.76 238.7,127 241.16,125.48 252.91,77.17 "/>
<line class="st0" x1="179.12" y1="141.16" x2="222.25" y2="149.05"/>
</svg>