<svg id="pants" viewBox="-10.375 -3 62.25 136.5"><g><path d="M19.821,0.0000C19.821,0.0000,20.750,6.7500,20.750,18.000L20.750,25.000C20.750,43.000,18.350,53.000,17.750,65.000L15.750,105.00L2.0000,105.00L0.0000,65.000L-3.1125,25.000C-3.1125,25.000-1.4335,24.780-1.0600,23.940C-0.43750,22.540,0.0000,18.000,0.0000,18.000L2.5000,2.5000Z"></path><path d="M19.821,0.0000C19.821,0.0000,20.750,6.7500,20.750,18.000L20.750,25.000C20.750,43.000,18.350,53.000,17.750,65.000L15.750,105.00L2.0000,105.00L0.0000,65.000L-3.1125,25.000C-3.1125,25.000-1.4335,24.780-1.0600,23.940C-0.43750,22.540,0.0000,18.000,0.0000,18.000L2.5000,2.5000Z"></path></g></svg>
