<?xml version="1.0" encoding="utf-8"?>
<!-- Generator: Adobe Illustrator 21.0.2, SVG Export Plug-In . SVG Version: 6.00 Build 0)  -->
<svg version="1.1" xmlns="http://www.w3.org/2000/svg" xmlns:xlink="http://www.w3.org/1999/xlink" x="0px" y="0px"
	 viewBox="0 0 466 199" style="enable-background:new 0 0 466 199;" xml:space="preserve">
<g id="Layer_2" style="display:none;">
	
		<image style="display:inline;overflow:visible;" width="278" height="128" xlink:href="17B94ECD.jpg"  transform="matrix(1.5288 0 0 1.5288 50 -3)">
	</image>
	<path style="display:inline;fill:none;stroke:#B75D42;stroke-width:0.5;stroke-miterlimit:10;" d="M164.7,61"/>
	<path style="display:inline;fill:none;stroke:#B75D42;stroke-width:0.5;stroke-miterlimit:10;" d="M164.7,64"/>
	<line style="display:inline;fill:none;stroke:#F15A24;stroke-miterlimit:10;" x1="240" y1="114.4" x2="241.8" y2="116.8"/>
	<line style="display:inline;fill:none;stroke:#F15A24;stroke-miterlimit:10;" x1="232.4" y1="85.1" x2="233.5" y2="87.8"/>
</g>
<g id="Layer_1">
	<path style="fill:#EA4C2D;" d="M71,10.2c-36.9,0-61-0.2-61-0.2v5.3c9.6,0,14.9,6.7,14.9,6.7l-0.3,111.8H10v5.3c24.6,0,24.4,0,62,0
		c37.4,0,72-19.7,72-66.7S108,10.2,71,10.2z M63.8,133.7V15.2c23,0,39.9,12.4,39.9,57.4C103.6,118.8,81.4,133.7,63.8,133.7z"/>
	<path style="fill:#EA4C2D;" d="M198.9,107.8"/>
	<path style="fill:#EA4C2D;" d="M339.1,141.7V54.6c0,0-15.5-7.1-40.5-7.1c-38.8,0-57.8,20.4-57.8,51c0,28.2,11.4,42.8,30,42.8
		s32.9-12,32.9-12v64.7c28.5-9.6,53.7-37.4,67.6-67c9.1,8.9,21.8,14.4,35.9,14.4c27.5,0,49.8-21,49.8-46.9s-22.3-46.9-49.8-46.9
		S358.4,66.5,357,94.4C357,120.7,339.1,141.7,339.1,141.7z M303.7,124c0,0-5.5,1.2-7.7,1.2c-2.2,0-16.4,0.7-16.4-35.7
		s9.6-36.6,16-36.6s8.2,2.8,8.2,2.8V124z M408,137.6c-7.4,0.4-14.4-18-15.5-41.1c-1.1-23.1,4-42.1,11.4-42.4
		c7.4-0.4,14.4,18,15.5,41.1S415.5,137.3,408,137.6z"/>
	<g>
		<path style="fill:#C6321E;" d="M404.7,47.5c0.1,0,0.1,0,0.2,0C404.8,47.5,404.7,47.5,404.7,47.5z"/>
		<path style="fill:#C6321E;" d="M402,47.7c0.3,0,0.7,0,1-0.1C402.7,47.6,402.3,47.6,402,47.7z"/>
		<path style="fill:#C6321E;" d="M357.3,94.3c0-3.2,0.3-6.3,1-9.2c-0.7,3-1.1,6-1.3,9.2c0,4.2-0.5,8.2-1.2,12.1
			c2.4,9,7.3,17.1,14.1,23.4c0.5-0.9,0.9-1.9,1.4-2.8C362.6,118.5,357.3,107,357.3,94.3z"/>
		<path style="fill:#C6321E;" d="M401.6,47.7c-18.3,1.8-33.2,12.3-40.3,28.1C368.3,60.6,383.5,49.5,401.6,47.7z"/>
		<path style="fill:#C6321E;" d="M407.2,47.4c0,0-0.1,0-0.1,0c27.4,0.1,49.6,21,49.6,46.9c0,25.9-22.2,46.9-49.6,46.9
			c0,0,0.1,0,0.1,0c27.5,0,49.8-21,49.8-46.9S434.7,47.4,407.2,47.4z"/>
		<path style="fill:#C6321E;" d="M358.5,83.9c-0.1,0.3-0.1,0.5-0.2,0.8C358.4,84.4,358.5,84.2,358.5,83.9z"/>
		<path style="fill:#C6321E;" d="M360.8,77.1c-0.1,0.2-0.1,0.3-0.2,0.5C360.7,77.4,360.7,77.2,360.8,77.1z"/>
	</g>
	<path style="fill:#EA4C2D;" d="M197.6,107.8c0,0,31.4-15.6,31.4-36.4c0-20.8-13.9-23.9-29-23.9c-15.1,0-46.2,7.6-46.2,48.5
		c0,37.4,36.9,45.4,46.3,45.4s21.2-2.2,35-16.2C235.1,125.1,210.7,125.8,197.6,107.8z M184.4,77.5c0-14.4,4.8-26.1,10.7-26.1
		c5.9,0,10.7,11.7,10.7,26.1c0,14.4-4.8,26.1-10.7,26.1C189.2,103.6,184.4,91.9,184.4,77.5z"/>
</g>
</svg>
