<svg id="pants" viewBox="-14.232750000000003 -13.432750000000002 84.0655 118.3655">
	<style>
	g path:first-of-type{
	fill: none;
	stroke: #0002;
	stroke-width: 3;
	}
	g path:last-of-type {
	fill: white;
	stroke: black;
	stroke-width: 0.2;
	}
	.points {
	font-size: 0.1em;
	fill: #ff1400;
	}
	g.guides path {
	fill: none;
	stroke: #0092ff;
	stroke-width:0.2;
	}
	</style>
	<g>
		<path d="M19.821,0.0000C19.821,0.0000,22.000,9.1667,22.000,17.000L22.000,25.000C22.000,32.231,19.900,42.000,19.000,54.000L16.000,94.000L2.0000,94.000L0.0000,54.000L-3.3000,25.000C-3.3000,25.000-1.4560,24.900-1.0600,23.940C-0.40000,22.340,0.0000,17.000,0.0000,17.000L2.5000,2.5000Z">
		</path>
		<path d="M19.821,0.0000C19.821,0.0000,22.000,9.1667,22.000,17.000L22.000,25.000C22.000,32.231,19.900,42.000,19.000,54.000L16.000,94.000L2.0000,94.000L0.0000,54.000L-3.3000,25.000C-3.3000,25.000-1.4560,24.900-1.0600,23.940C-0.40000,22.340,0.0000,17.000,0.0000,17.000L2.5000,2.5000Z">
		</path>
	</g>
	<g transform="translate(5, 0)">
		<path d="M22.179,0.0000L41.500-2.5000L44.000,14.500L47.182,21.818L53.900,25.000L46.000,54.000L43.000,94.000L25.000,94.000L23.000,54.000L22.000,25.000L22.000,17.000Z">
		</path>
		<path d="M22.179,0.0000L41.500-2.5000L44.000,14.500L47.182,21.818L53.900,25.000L46.000,54.000L43.000,94.000L25.000,94.000L23.000,54.000L22.000,25.000L22.000,17.000Z">
		</path>
	</g>
	<g class="guides">
		<path d="M0.0000,0.0000L0.0000,94.000L22.000,94.000L22.000,0.0000Z">
		</path>
		<path d="M0.0000,17.000L22.000,17.000M-3.3000,25.000L22.000,25.000M0.0000,25.000L-1.0600,23.940M0.0000,54.000L22.000,54.000">
		</path>
	</g>
	<g class="points">
		<g class="dot-note ">
			<ellipse cx="0" cy="0" rx="0.3" ry="0.3">
			</ellipse>
			<text class="note" x="0" y="-0.7421875000000001" text-anchor="middle" transform-origin="0 0" transform="scale(1) translate(0,0)">A</text>
		</g>
		<g class="dot-note ">
			<ellipse cx="0" cy="94" rx="0.3" ry="0.3">
			</ellipse>
			<text class="note" x="0" y="93.2578125" text-anchor="middle" transform-origin="0 0" transform="scale(1) translate(0,0)">D</text>
		</g>
		<g class="dot-note ">
			<ellipse cx="2" cy="94" rx="0.3" ry="0.3">
			</ellipse>
			<text class="note" x="2" y="93.2578125" text-anchor="middle" transform-origin="0 0" transform="scale(1) translate(0,0)">D2</text>
		</g>
		<g class="dot-note ">
			<ellipse cx="0" cy="17" rx="0.3" ry="0.3">
			</ellipse>
			<text class="note" x="0" y="16.2578125" text-anchor="middle" transform-origin="0 0" transform="scale(1) translate(0,0)">E</text>
		</g>
		<g class="dot-note ">
			<ellipse cx="0" cy="25" rx="0.3" ry="0.3">
			</ellipse>
			<text class="note" x="0" y="24.2578125" text-anchor="middle" transform-origin="0 0" transform="scale(1) translate(0,0)">G</text>
		</g>
		<g class="dot-note ">
			<ellipse cx="0" cy="54" rx="0.3" ry="0.3">
			</ellipse>
			<text class="note" x="0" y="53.2578125" text-anchor="middle" transform-origin="0 0" transform="scale(1) translate(0,0)">I</text>
		</g>
		<g class="dot-note ">
			<ellipse cx="2.5" cy="2.5" rx="0.3" ry="0.3">
			</ellipse>
			<text class="note" x="2.5" y="1.7578125" text-anchor="middle" transform-origin="0 0" transform="scale(1) translate(0,0)">L</text>
		</g>
		<g class="dot-note ">
			<ellipse cx="19.820508075688775" cy="0" rx="0.3" ry="0.3">
			</ellipse>
			<text class="note" x="19.820508075688775" y="-0.7421875000000001" text-anchor="middle" transform-origin="0 0" transform="scale(1) translate(0,0)">M</text>
		</g>
		<g class="dot-note ">
			<ellipse cx="-3.3" cy="25" rx="0.3" ry="0.3">
			</ellipse>
			<text class="note" x="-3.3" y="24.2578125" text-anchor="middle" transform-origin="0 0" transform="scale(1) translate(0,0)">N</text>
		</g>
		<g class="dot-note ">
			<ellipse cx="-1.06" cy="23.94" rx="0.3" ry="0.3">
			</ellipse>
			<text class="note" x="-1.06" y="23.1978125" text-anchor="middle" transform-origin="0 0" transform="scale(1) translate(0,0)">O</text>
		</g>
		<g class="dot-note ">
			<ellipse cx="19" cy="54" rx="0.3" ry="0.3">
			</ellipse>
			<text class="note" x="19" y="53.2578125" text-anchor="middle" transform-origin="0 0" transform="scale(1) translate(0,0)">P</text>
		</g>
		<g class="dot-note ">
			<ellipse cx="16" cy="94" rx="0.3" ry="0.3">
			</ellipse>
			<text class="note" x="16" y="93.2578125" text-anchor="middle" transform-origin="0 0" transform="scale(1) translate(0,0)">Q</text>
		</g>
		<g class="dot-note ">
			<ellipse cx="22" cy="0" rx="0.3" ry="0.3">
			</ellipse>
			<text class="note" x="22" y="-0.7421875000000001" text-anchor="middle" transform-origin="0 0" transform="scale(1) translate(0,0)">P1</text>
		</g>
		<g class="dot-note ">
			<ellipse cx="22" cy="94" rx="0.3" ry="0.3">
			</ellipse>
			<text class="note" x="22" y="93.2578125" text-anchor="middle" transform-origin="0 0" transform="scale(1) translate(0,0)">P2</text>
		</g>
		<g class="dot-note ">
			<ellipse cx="22" cy="17" rx="0.3" ry="0.3">
			</ellipse>
			<text class="note" x="22" y="16.2578125" text-anchor="middle" transform-origin="0 0" transform="scale(1) translate(0,0)">P3</text>
		</g>
		<g class="dot-note ">
			<ellipse cx="22" cy="54" rx="0.3" ry="0.3">
			</ellipse>
			<text class="note" x="22" y="53.2578125" text-anchor="middle" transform-origin="0 0" transform="scale(1) translate(0,0)">P4</text>
		</g>
	</g>
</svg>
